<svg width="22" height="22" viewBox="0 0 22 22" fill="none" xmlns="http://www.w3.org/2000/svg">
<path d="M14.2365 17.3886C14.3003 17.4525 14.351 17.5283 14.3856 17.6118C14.4201 17.6952 14.4379 17.7847 14.4379 17.875C14.4379 17.9654 14.4201 18.0548 14.3856 18.1383C14.351 18.2217 14.3003 18.2975 14.2365 18.3614C14.1726 18.4253 14.0968 18.476 14.0133 18.5105C13.9298 18.5451 13.8404 18.5629 13.7501 18.5629C13.6597 18.5629 13.5703 18.5451 13.4868 18.5105C13.4034 18.476 13.3275 18.4253 13.2636 18.3614L6.38865 11.4864C6.32472 11.4226 6.27402 11.3467 6.23942 11.2633C6.20482 11.1798 6.18701 11.0904 6.18701 11C6.18701 10.9097 6.20482 10.8202 6.23942 10.7367C6.27402 10.6533 6.32472 10.5775 6.38865 10.5136L13.2636 3.63861C13.3926 3.50961 13.5676 3.43713 13.7501 3.43713C13.9325 3.43713 14.1075 3.50961 14.2365 3.63861C14.3655 3.76761 14.4379 3.94258 14.4379 4.12502C14.4379 4.30745 14.3655 4.48242 14.2365 4.61142L7.84701 11L14.2365 17.3886Z" fill="#55EFC4"/>
</svg>
