<svg width="111" height="46" viewBox="0 0 111 46" fill="none" xmlns="http://www.w3.org/2000/svg">
<path d="M19.832 32.8538C19.832 32.9498 19.784 33.2378 19.688 33.7178C19.624 34.1658 19.528 34.5978 19.4 35.0138C19.272 35.4618 19.16 35.6858 19.064 35.6858C19.032 35.6858 18.952 35.6538 18.824 35.5898L1.256 26.6618C0.904 26.4698 0.664 26.2138 0.536 25.8938C0.44 25.5738 0.392 25.2058 0.392 24.7898C0.392 24.5338 0.472 24.3258 0.632 24.1658C0.824 23.9738 1.032 23.8138 1.256 23.6858L18.728 14.9018C18.856 14.8378 18.936 14.8058 18.968 14.8058C19.16 14.8058 19.432 15.7018 19.784 17.4938C19.816 17.6218 19.8 17.7338 19.736 17.8298C19.672 17.8938 19.64 17.9258 19.64 17.9258L4.712 25.1738L19.688 32.5658C19.688 32.5658 19.704 32.5818 19.736 32.6138C19.8 32.6458 19.832 32.7258 19.832 32.8538ZM26.3791 31.9898V22.7738C26.3791 22.6138 26.3631 22.2778 26.3311 21.7658C26.3311 21.2218 26.2991 20.6778 26.2351 20.1338C26.1711 19.5578 26.0751 19.1578 25.9471 18.9338C25.8191 18.6778 25.5311 18.4858 25.0831 18.3578C24.6671 18.2298 24.2511 18.1338 23.8351 18.0698C23.4191 18.0058 23.1471 17.9738 23.0191 17.9738C22.9871 17.9418 22.9551 17.8138 22.9231 17.5898C22.8911 17.3338 22.8751 17.0938 22.8751 16.8698C22.9071 16.6458 22.9711 16.5338 23.0671 16.5338C24.2511 16.4378 25.4191 16.2458 26.5711 15.9578C27.7551 15.6698 28.8431 15.3498 29.8351 14.9978C30.8271 14.6458 31.6111 14.3258 32.1871 14.0378C32.3471 14.0698 32.5231 14.1978 32.7151 14.4218C32.9071 14.6458 33.0031 14.7898 33.0031 14.8538C32.9391 15.0458 32.8431 15.4618 32.7151 16.1018C32.6191 16.7098 32.5551 17.1898 32.5231 17.5418C32.4911 18.0538 32.4751 18.6298 32.4751 19.2698C32.4751 19.9098 32.4751 20.3098 32.4751 20.4698V29.3498C32.4751 31.3018 32.3151 33.2058 31.9951 35.0618C31.6751 36.9178 31.0831 38.4858 30.2191 39.7658C29.4831 40.8218 28.5871 41.7498 27.5311 42.5498C26.5071 43.3818 25.5151 44.0218 24.5551 44.4698C23.5951 44.9498 22.8431 45.1898 22.2991 45.1898C22.1391 45.0938 21.9951 44.9658 21.8671 44.8058C21.7071 44.6458 21.6271 44.5018 21.6271 44.3738C21.6271 44.1818 21.6431 44.0698 21.6751 44.0378C21.7391 44.0058 22.0111 43.8138 22.4911 43.4618C22.9711 43.1098 23.4991 42.4858 24.0751 41.5898C24.6831 40.7258 25.2111 39.5098 25.6591 37.9418C26.1391 36.3738 26.3791 34.3898 26.3791 31.9898ZM25.5631 6.06979C25.5631 5.10979 25.8991 4.29379 26.5711 3.62179C27.2751 2.94979 28.1071 2.61379 29.0671 2.61379C30.0271 2.61379 30.8431 2.94979 31.5151 3.62179C32.1871 4.29379 32.5231 5.10979 32.5231 6.06979C32.5231 7.02979 32.1871 7.86179 31.5151 8.56579C30.8431 9.23779 30.0271 9.57379 29.0671 9.57379C28.1071 9.57379 27.2751 9.23779 26.5711 8.56579C25.8991 7.86179 25.5631 7.02979 25.5631 6.06979ZM50.8734 30.4538C52.3134 30.5178 53.4974 30.8698 54.4254 31.5098C55.3534 32.1498 56.0254 32.8698 56.4414 33.6698C56.8894 34.4378 57.1134 35.0938 57.1134 35.6378C57.1134 37.0458 56.7614 38.3258 56.0574 39.4778C55.3534 40.6618 54.4094 41.6698 53.2254 42.5018C52.0414 43.3658 50.6974 44.0218 49.1934 44.4698C47.7214 44.9498 46.1854 45.1898 44.5854 45.1898C42.2814 45.1898 40.3934 44.6778 38.9214 43.6538C37.4494 42.6618 36.7134 41.3818 36.7134 39.8138C36.7134 39.1738 36.9214 38.5658 37.3374 37.9898C37.7854 37.4138 38.3134 36.8858 38.9214 36.4058C39.5294 35.9258 40.1214 35.5418 40.6974 35.2538C39.8974 35.0298 39.2254 34.4538 38.6814 33.5258C38.1694 32.5978 37.9134 31.6378 37.9134 30.6458C37.9134 30.3578 38.1054 30.0218 38.4894 29.6378C38.9054 29.2218 39.4174 28.8058 40.0254 28.3898C40.6334 27.9418 41.2254 27.5578 41.8014 27.2378C40.4574 26.6938 39.3854 25.8938 38.5854 24.8378C37.8174 23.7498 37.4334 22.5338 37.4334 21.1898C37.4334 19.8778 37.8014 18.6938 38.5374 17.6378C39.3054 16.5818 40.3294 15.7498 41.6094 15.1418C42.8894 14.5018 44.3294 14.1818 45.9294 14.1818C46.9854 14.1818 47.9134 14.2778 48.7134 14.4698C49.5454 14.6298 50.2814 14.9338 50.9214 15.3818C51.0174 15.4778 51.1134 15.5258 51.2094 15.5258L57.0654 14.9498C57.1294 14.9818 57.2254 15.0458 57.3534 15.1418C57.5134 15.2058 57.5934 15.3178 57.5934 15.4778C57.5934 15.5738 57.5294 15.7978 57.4014 16.1498C57.2734 16.5018 57.1134 16.8378 56.9214 17.1578C56.7614 17.4778 56.6014 17.7018 56.4414 17.8298C55.9294 17.7658 55.5134 17.7178 55.1934 17.6858C54.8734 17.6538 54.4094 17.6058 53.8014 17.5418C53.6094 17.5418 53.5134 17.5898 53.5134 17.6858C53.8974 18.1978 54.1534 18.7098 54.2814 19.2218C54.4414 19.7338 54.5214 20.3098 54.5214 20.9498C54.5214 22.2298 54.1534 23.4138 53.4174 24.5018C52.6814 25.5578 51.6734 26.4058 50.3934 27.0458C49.1134 27.6858 47.6574 28.0058 46.0254 28.0058C45.6094 28.0058 45.1934 27.9898 44.7774 27.9578C44.3614 27.9258 43.9614 27.8778 43.5774 27.8138C43.3214 28.0378 43.0654 28.2778 42.8094 28.5338C42.5854 28.7578 42.4734 28.9978 42.4734 29.2538C42.4734 29.6058 42.6974 29.8938 43.1454 30.1178C43.6254 30.3098 44.1374 30.4058 44.6814 30.4058C44.9054 30.4058 45.1294 30.4058 45.3534 30.4058C45.5774 30.4058 45.8174 30.4058 46.0734 30.4058C46.8734 30.4058 47.7214 30.4058 48.6174 30.4058C49.5134 30.4058 50.2654 30.4218 50.8734 30.4538ZM47.8014 35.6378H42.6174C42.4574 35.8298 42.2974 36.0858 42.1374 36.4058C41.9774 36.7258 41.8974 37.1578 41.8974 37.7018C41.8974 39.2378 42.4254 40.4218 43.4814 41.2538C44.5374 42.1178 45.8814 42.5498 47.5134 42.5498C49.0174 42.5498 50.1694 42.3258 50.9694 41.8778C51.7694 41.4618 52.3134 40.9498 52.6014 40.3418C52.8894 39.7338 53.0334 39.1738 53.0334 38.6618C53.0334 37.6698 52.5374 36.9178 51.5454 36.4058C50.5534 35.8938 49.3054 35.6378 47.8014 35.6378ZM45.6894 15.9578C44.8894 15.9578 44.2974 16.1978 43.9134 16.6778C43.5614 17.1578 43.3374 17.7498 43.2414 18.4538C43.1454 19.1578 43.0974 19.8618 43.0974 20.5658C43.0974 21.4298 43.2094 22.3098 43.4334 23.2058C43.6574 24.0698 44.0094 24.8058 44.4894 25.4138C45.0014 25.9898 45.6574 26.2778 46.4574 26.2778C47.2574 26.2778 47.8174 26.0538 48.1374 25.6058C48.4574 25.1258 48.6494 24.5498 48.7134 23.8778C48.7774 23.2058 48.8094 22.5338 48.8094 21.8618C48.8094 21.7658 48.8094 21.6858 48.8094 21.6218C48.8094 20.7578 48.7134 19.8938 48.5214 19.0298C48.3614 18.1338 48.0574 17.3978 47.6094 16.8218C47.1614 16.2458 46.5214 15.9578 45.6894 15.9578ZM87.0564 0.837789C87.6324 0.837789 87.9364 0.949788 87.9684 1.17379L75.8724 43.7018C75.8404 43.9258 75.6004 44.1498 75.1524 44.3738C74.9604 44.4698 74.7204 44.5498 74.4324 44.6138C74.1764 44.6778 73.8724 44.7098 73.5204 44.7098C73.3604 44.7098 73.1844 44.6778 72.9924 44.6138C72.8644 44.5498 72.7684 44.5018 72.7044 44.4698L72.6564 44.3738L84.8004 1.84579C84.9604 1.58979 85.2164 1.34979 85.5684 1.12579C85.7604 0.997787 85.9684 0.917788 86.1924 0.885788C86.4484 0.853788 86.7364 0.837789 87.0564 0.837789ZM90.8844 32.8538C90.8844 32.7258 90.9004 32.6458 90.9324 32.6138C90.9964 32.5818 91.0284 32.5658 91.0284 32.5658L105.956 25.1738L91.0764 17.9258C91.0764 17.9258 91.0444 17.8938 90.9804 17.8298C90.9164 17.7338 90.9004 17.6218 90.9324 17.4938C91.2844 15.7018 91.5404 14.8058 91.7004 14.8058C91.7324 14.8058 91.8124 14.8378 91.9404 14.9018L109.46 23.6858C110.004 23.9418 110.276 24.3098 110.276 24.7898C110.276 25.2058 110.228 25.5738 110.132 25.8938C110.036 26.2138 109.812 26.4698 109.46 26.6618L91.8444 35.5898C91.7164 35.6538 91.6364 35.6858 91.6044 35.6858C91.5084 35.6858 91.3964 35.4618 91.2684 35.0138C91.1724 34.5978 91.0764 34.1658 90.9804 33.7178C90.9164 33.2378 90.8844 32.9498 90.8844 32.8538Z" fill="#55EFC4"/>
</svg>
